<mxfile host="app.diagrams.net">
  <diagram name="Team Model Table ERD" id="team-model-table-erd">
    <mxGraphModel dx="692" dy="402" grid="1" gridSize="10" guides="1" tooltips="1" connect="1" arrows="1" fold="1" page="1" pageScale="1" pageWidth="1200" pageHeight="370" math="0" shadow="0">
      <root>
        <mxCell id="0" />
        <mxCell id="1" parent="0" />
        <!-- Tiêu đề lớn -->
        <mxCell id="bigTitle" value="TEAM MODEL - ERD TABLE" style="text;html=1;strokeColor=none;fillColor=none;align=center;fontSize=24;fontStyle=1;fontColor=#4472C4;" parent="1" vertex="1">
          <mxGeometry x="50" y="20" width="1100" height="50" as="geometry" />
        </mxCell>
        <!-- Bảng ERD -->
        <mxCell id="teamTable" value="" style="shape=table;startSize=0;container=1;collapsible=0;childLayout=tableLayout;fixedRows=1;rowLines=0;fontStyle=1;align=center;resizeLast=1;strokeColor=#000000;fillColor=#ffffff;" parent="1" vertex="1">
          <mxGeometry x="50" y="80" width="1100" height="270" as="geometry" />
        </mxCell>
        <!-- Header -->
        <mxCell id="header" value="" style="shape=tableRow;horizontal=0;fillColor=#4472C4;strokeColor=#000000;" parent="teamTable" vertex="1">
          <mxGeometry width="1100" height="40" as="geometry" />
        </mxCell>
        <mxCell id="h1" value="Tên trường" style="shape=partialRectangle;connectable=0;fillColor=#4472C4;align=center;fontStyle=1;fontSize=12;fontColor=#ffffff;" parent="header" vertex="1"><mxGeometry width="160" height="40" as="geometry" /></mxCell>
        <mxCell id="h2" value="Kiểu dữ liệu" style="shape=partialRectangle;connectable=0;fillColor=#4472C4;align=center;fontStyle=1;fontSize=12;fontColor=#ffffff;" parent="header" vertex="1"><mxGeometry x="160" width="120" height="40" as="geometry" /></mxCell>
        <mxCell id="h3" value="Ràng buộc/Enum" style="shape=partialRectangle;connectable=0;fillColor=#4472C4;align=center;fontStyle=1;fontSize=12;fontColor=#ffffff;" parent="header" vertex="1"><mxGeometry x="280" width="250" height="40" as="geometry" /></mxCell>
        <mxCell id="h4" value="Giá trị mặc định" style="shape=partialRectangle;connectable=0;fillColor=#4472C4;align=center;fontStyle=1;fontSize=12;fontColor=#ffffff;" parent="header" vertex="1"><mxGeometry x="530" width="140" height="40" as="geometry" /></mxCell>
        <mxCell id="h5" value="Mô tả" style="shape=partialRectangle;connectable=0;fillColor=#4472C4;align=center;fontStyle=1;fontSize=12;fontColor=#ffffff;" parent="header" vertex="1"><mxGeometry x="670" width="430" height="40" as="geometry" /></mxCell>
        <!-- Data Rows -->
        <mxCell id="row1" value="" style="shape=tableRow;horizontal=0;fillColor=#FFE6CC;strokeColor=#000000;" parent="teamTable" vertex="1"><mxGeometry y="40" width="1100" height="30" as="geometry" /></mxCell>
        <mxCell id="r1c1" value="_id" style="shape=partialRectangle;connectable=0;fillColor=#FFE6CC;align=left;fontStyle=1;" parent="row1" vertex="1"><mxGeometry width="160" height="30" as="geometry" /></mxCell>
        <mxCell id="r1c2" value="ObjectId" style="shape=partialRectangle;connectable=0;fillColor=#FFE6CC;align=left;" parent="row1" vertex="1"><mxGeometry x="160" width="120" height="30" as="geometry" /></mxCell>
        <mxCell id="r1c3" value="Primary Key" style="shape=partialRectangle;connectable=0;fillColor=#FFE6CC;align=left;" parent="row1" vertex="1"><mxGeometry x="280" width="250" height="30" as="geometry" /></mxCell>
        <mxCell id="r1c4" value="Tự động" style="shape=partialRectangle;connectable=0;fillColor=#FFE6CC;align=left;" parent="row1" vertex="1"><mxGeometry x="530" width="140" height="30" as="geometry" /></mxCell>
        <mxCell id="r1c5" value="Khóa chính MongoDB" style="shape=partialRectangle;connectable=0;fillColor=#FFE6CC;align=left;" parent="row1" vertex="1"><mxGeometry x="670" width="430" height="30" as="geometry" /></mxCell>
        <mxCell id="row2" value="" style="shape=tableRow;horizontal=0;fillColor=#ffffff;strokeColor=#000000;" parent="teamTable" vertex="1"><mxGeometry y="70" width="1100" height="30" as="geometry" /></mxCell>
        <mxCell id="r2c1" value="team_name" style="shape=partialRectangle;connectable=0;fillColor=#ffffff;align=left;" parent="row2" vertex="1"><mxGeometry width="160" height="30" as="geometry" /></mxCell>
        <mxCell id="r2c2" value="String" style="shape=partialRectangle;connectable=0;fillColor=#ffffff;align=left;" parent="row2" vertex="1"><mxGeometry x="160" width="120" height="30" as="geometry" /></mxCell>
        <mxCell id="r2c3" value="required, max: 100" style="shape=partialRectangle;connectable=0;fillColor=#ffffff;align=left;" parent="row2" vertex="1"><mxGeometry x="280" width="250" height="30" as="geometry" /></mxCell>
        <mxCell id="r2c4" value="" style="shape=partialRectangle;connectable=0;fillColor=#ffffff;align=left;" parent="row2" vertex="1"><mxGeometry x="530" width="140" height="30" as="geometry" /></mxCell>
        <mxCell id="r2c5" value="Tên nhóm" style="shape=partialRectangle;connectable=0;fillColor=#ffffff;align=left;" parent="row2" vertex="1"><mxGeometry x="670" width="430" height="30" as="geometry" /></mxCell>
        <mxCell id="row3" value="" style="shape=tableRow;horizontal=0;fillColor=#E6F3FF;strokeColor=#000000;" parent="teamTable" vertex="1"><mxGeometry y="100" width="1100" height="30" as="geometry" /></mxCell>
        <mxCell id="r3c1" value="description" style="shape=partialRectangle;connectable=0;fillColor=#E6F3FF;align=left;" parent="row3" vertex="1"><mxGeometry width="160" height="30" as="geometry" /></mxCell>
        <mxCell id="r3c2" value="String" style="shape=partialRectangle;connectable=0;fillColor=#E6F3FF;align=left;" parent="row3" vertex="1"><mxGeometry x="160" width="120" height="30" as="geometry" /></mxCell>
        <mxCell id="r3c3" value="max: 500" style="shape=partialRectangle;connectable=0;fillColor=#E6F3FF;align=left;" parent="row3" vertex="1"><mxGeometry x="280" width="250" height="30" as="geometry" /></mxCell>
        <mxCell id="r3c4" value="" style="shape=partialRectangle;connectable=0;fillColor=#E6F3FF;align=left;" parent="row3" vertex="1"><mxGeometry x="530" width="140" height="30" as="geometry" /></mxCell>
        <mxCell id="r3c5" value="Mô tả nhóm" style="shape=partialRectangle;connectable=0;fillColor=#E6F3FF;align=left;" parent="row3" vertex="1"><mxGeometry x="670" width="430" height="30" as="geometry" /></mxCell>
        <mxCell id="row4" value="" style="shape=tableRow;horizontal=0;fillColor=#ffffff;strokeColor=#000000;" parent="teamTable" vertex="1"><mxGeometry y="130" width="1100" height="30" as="geometry" /></mxCell>
        <mxCell id="r4c1" value="type" style="shape=partialRectangle;connectable=0;fillColor=#ffffff;align=left;" parent="row4" vertex="1"><mxGeometry width="160" height="30" as="geometry" /></mxCell>
        <mxCell id="r4c2" value="String" style="shape=partialRectangle;connectable=0;fillColor=#ffffff;align=left;" parent="row4" vertex="1"><mxGeometry x="160" width="120" height="30" as="geometry" /></mxCell>
        <mxCell id="r4c3" value="max: 50" style="shape=partialRectangle;connectable=0;fillColor=#ffffff;align=left;" parent="row4" vertex="1"><mxGeometry x="280" width="250" height="30" as="geometry" /></mxCell>
        <mxCell id="r4c4" value="Public" style="shape=partialRectangle;connectable=0;fillColor=#ffffff;align=left;" parent="row4" vertex="1"><mxGeometry x="530" width="140" height="30" as="geometry" /></mxCell>
        <mxCell id="r4c5" value="Loại nhóm" style="shape=partialRectangle;connectable=0;fillColor=#ffffff;align=left;" parent="row4" vertex="1"><mxGeometry x="670" width="430" height="30" as="geometry" /></mxCell>
        <mxCell id="row5" value="" style="shape=tableRow;horizontal=0;fillColor=#E6F3FF;strokeColor=#000000;" parent="teamTable" vertex="1"><mxGeometry y="160" width="1100" height="30" as="geometry" /></mxCell>
        <mxCell id="r5c1" value="created_by" style="shape=partialRectangle;connectable=0;fillColor=#E6F3FF;align=left;" parent="row5" vertex="1"><mxGeometry width="160" height="30" as="geometry" /></mxCell>
        <mxCell id="r5c2" value="ObjectId" style="shape=partialRectangle;connectable=0;fillColor=#E6F3FF;align=left;" parent="row5" vertex="1"><mxGeometry x="160" width="120" height="30" as="geometry" /></mxCell>
        <mxCell id="r5c3" value="ref: User, required" style="shape=partialRectangle;connectable=0;fillColor=#E6F3FF;align=left;" parent="row5" vertex="1"><mxGeometry x="280" width="250" height="30" as="geometry" /></mxCell>
        <mxCell id="r5c4" value="" style="shape=partialRectangle;connectable=0;fillColor=#E6F3FF;align=left;" parent="row5" vertex="1"><mxGeometry x="530" width="140" height="30" as="geometry" /></mxCell>
        <mxCell id="r5c5" value="Người tạo nhóm" style="shape=partialRectangle;connectable=0;fillColor=#E6F3FF;align=left;" parent="row5" vertex="1"><mxGeometry x="670" width="430" height="30" as="geometry" /></mxCell>
        <mxCell id="row6" value="" style="shape=tableRow;horizontal=0;fillColor=#ffffff;strokeColor=#000000;" parent="teamTable" vertex="1"><mxGeometry y="190" width="1100" height="30" as="geometry" /></mxCell>
        <mxCell id="r6c1" value="is_deleted" style="shape=partialRectangle;connectable=0;fillColor=#ffffff;align=left;" parent="row6" vertex="1"><mxGeometry width="160" height="30" as="geometry" /></mxCell>
        <mxCell id="r6c2" value="Boolean" style="shape=partialRectangle;connectable=0;fillColor=#ffffff;align=left;" parent="row6" vertex="1"><mxGeometry x="160" width="120" height="30" as="geometry" /></mxCell>
        <mxCell id="r6c3" value="" style="shape=partialRectangle;connectable=0;fillColor=#ffffff;align=left;" parent="row6" vertex="1"><mxGeometry x="280" width="250" height="30" as="geometry" /></mxCell>
        <mxCell id="r6c4" value="false" style="shape=partialRectangle;connectable=0;fillColor=#ffffff;align=left;" parent="row6" vertex="1"><mxGeometry x="530" width="140" height="30" as="geometry" /></mxCell>
        <mxCell id="r6c5" value="Đánh dấu xóa mềm" style="shape=partialRectangle;connectable=0;fillColor=#ffffff;align=left;" parent="row6" vertex="1"><mxGeometry x="670" width="430" height="30" as="geometry" /></mxCell>
        <mxCell id="row7" value="" style="shape=tableRow;horizontal=0;fillColor=#E6F3FF;strokeColor=#000000;" parent="teamTable" vertex="1"><mxGeometry y="220" width="1100" height="30" as="geometry" /></mxCell>
        <mxCell id="r7c1" value="project_data" style="shape=partialRectangle;connectable=0;fillColor=#E6F3FF;align=left;" parent="row7" vertex="1"><mxGeometry width="160" height="30" as="geometry" /></mxCell>
        <mxCell id="r7c2" value="ObjectId" style="shape=partialRectangle;connectable=0;fillColor=#E6F3FF;align=left;" parent="row7" vertex="1"><mxGeometry x="160" width="120" height="30" as="geometry" /></mxCell>
        <mxCell id="r7c3" value="ref: Project" style="shape=partialRectangle;connectable=0;fillColor=#E6F3FF;align=left;" parent="row7" vertex="1"><mxGeometry x="280" width="250" height="30" as="geometry" /></mxCell>
        <mxCell id="r7c4" value="null" style="shape=partialRectangle;connectable=0;fillColor=#E6F3FF;align=left;" parent="row7" vertex="1"><mxGeometry x="530" width="140" height="30" as="geometry" /></mxCell>
        <mxCell id="r7c5" value="Dữ liệu project liên kết" style="shape=partialRectangle;connectable=0;fillColor=#E6F3FF;align=left;" parent="row7" vertex="1"><mxGeometry x="670" width="430" height="30" as="geometry" /></mxCell>
        <mxCell id="row8" value="" style="shape=tableRow;horizontal=0;fillColor=#ffffff;strokeColor=#000000;" parent="teamTable" vertex="1"><mxGeometry y="250" width="1100" height="30" as="geometry" /></mxCell>
        <mxCell id="r8c1" value="created_at" style="shape=partialRectangle;connectable=0;fillColor=#ffffff;align=left;" parent="row8" vertex="1"><mxGeometry width="160" height="30" as="geometry" /></mxCell>
        <mxCell id="r8c2" value="Date" style="shape=partialRectangle;connectable=0;fillColor=#ffffff;align=left;" parent="row8" vertex="1"><mxGeometry x="160" width="120" height="30" as="geometry" /></mxCell>
        <mxCell id="r8c3" value="" style="shape=partialRectangle;connectable=0;fillColor=#ffffff;align=left;" parent="row8" vertex="1"><mxGeometry x="280" width="250" height="30" as="geometry" /></mxCell>
        <mxCell id="r8c4" value="Date.now" style="shape=partialRectangle;connectable=0;fillColor=#ffffff;align=left;" parent="row8" vertex="1"><mxGeometry x="530" width="140" height="30" as="geometry" /></mxCell>
        <mxCell id="r8c5" value="Ngày tạo nhóm" style="shape=partialRectangle;connectable=0;fillColor=#ffffff;align=left;" parent="row8" vertex="1"><mxGeometry x="670" width="430" height="30" as="geometry" /></mxCell>
        <mxCell id="row9" value="" style="shape=tableRow;horizontal=0;fillColor=#E6F3FF;strokeColor=#000000;" parent="teamTable" vertex="1"><mxGeometry y="280" width="1100" height="30" as="geometry" /></mxCell>
        <mxCell id="r9c1" value="updated_at" style="shape=partialRectangle;connectable=0;fillColor=#E6F3FF;align=left;" parent="row9" vertex="1"><mxGeometry width="160" height="30" as="geometry" /></mxCell>
        <mxCell id="r9c2" value="Date" style="shape=partialRectangle;connectable=0;fillColor=#E6F3FF;align=left;" parent="row9" vertex="1"><mxGeometry x="160" width="120" height="30" as="geometry" /></mxCell>
        <mxCell id="r9c3" value="" style="shape=partialRectangle;connectable=0;fillColor=#E6F3FF;align=left;" parent="row9" vertex="1"><mxGeometry x="280" width="250" height="30" as="geometry" /></mxCell>
        <mxCell id="r9c4" value="Date.now" style="shape=partialRectangle;connectable=0;fillColor=#E6F3FF;align=left;" parent="row9" vertex="1"><mxGeometry x="530" width="140" height="30" as="geometry" /></mxCell>
        <mxCell id="r9c5" value="Ngày cập nhật nhóm" style="shape=partialRectangle;connectable=0;fillColor=#E6F3FF;align=left;" parent="row9" vertex="1"><mxGeometry x="670" width="430" height="30" as="geometry" /></mxCell>
      </root>
    </mxGraphModel>
  </diagram>
</mxfile>
